<mxfile host="Electron" agent="Mozilla/5.0 (Windows NT 10.0; Win64; x64) AppleWebKit/537.36 (KHTML, like Gecko) draw.io/25.0.1 Chrome/128.0.6613.186 Electron/32.2.6 Safari/537.36" version="25.0.1">
  <diagram name="Page-1" id="YROhhORomCHILurR81Ce">
    <mxGraphModel dx="1434" dy="836" grid="1" gridSize="10" guides="1" tooltips="1" connect="1" arrows="1" fold="1" page="1" pageScale="1" pageWidth="827" pageHeight="1169" math="0" shadow="0">
      <root>
        <mxCell id="0" />
        <mxCell id="1" parent="0" />
        <mxCell id="2Kgd87G7EHSv7Dq4OT56-7" value="tblUsers" style="swimlane;whiteSpace=wrap;html=1;" vertex="1" parent="1">
          <mxGeometry x="130" y="130" width="200" height="210" as="geometry">
            <mxRectangle x="140" y="130" width="80" height="30" as="alternateBounds" />
          </mxGeometry>
        </mxCell>
        <mxCell id="2Kgd87G7EHSv7Dq4OT56-8" value="PK" style="text;html=1;align=center;verticalAlign=middle;whiteSpace=wrap;rounded=0;" vertex="1" parent="2Kgd87G7EHSv7Dq4OT56-7">
          <mxGeometry y="30" width="40" height="20" as="geometry" />
        </mxCell>
        <mxCell id="2Kgd87G7EHSv7Dq4OT56-9" value="" style="endArrow=none;html=1;rounded=0;" edge="1" parent="2Kgd87G7EHSv7Dq4OT56-7">
          <mxGeometry width="50" height="50" relative="1" as="geometry">
            <mxPoint x="40" y="210" as="sourcePoint" />
            <mxPoint x="40" y="30" as="targetPoint" />
          </mxGeometry>
        </mxCell>
        <mxCell id="2Kgd87G7EHSv7Dq4OT56-10" value="user_id NOT NULL" style="text;strokeColor=none;fillColor=none;align=left;verticalAlign=middle;spacingLeft=4;spacingRight=4;overflow=hidden;points=[[0,0.5],[1,0.5]];portConstraint=eastwest;rotatable=0;whiteSpace=wrap;html=1;" vertex="1" parent="2Kgd87G7EHSv7Dq4OT56-7">
          <mxGeometry x="40" y="25" width="160" height="30" as="geometry" />
        </mxCell>
        <mxCell id="2Kgd87G7EHSv7Dq4OT56-11" value="" style="endArrow=none;html=1;rounded=0;exitX=0;exitY=1;exitDx=0;exitDy=0;" edge="1" parent="2Kgd87G7EHSv7Dq4OT56-7" source="2Kgd87G7EHSv7Dq4OT56-8">
          <mxGeometry width="50" height="50" relative="1" as="geometry">
            <mxPoint x="70" y="70" as="sourcePoint" />
            <mxPoint x="200" y="50" as="targetPoint" />
          </mxGeometry>
        </mxCell>
        <mxCell id="2Kgd87G7EHSv7Dq4OT56-12" value="&lt;font style=&quot;font-size: 10px;&quot;&gt;first_name char(50) NOT NULL&lt;/font&gt;" style="text;html=1;align=center;verticalAlign=middle;whiteSpace=wrap;rounded=0;" vertex="1" parent="2Kgd87G7EHSv7Dq4OT56-7">
          <mxGeometry x="30" y="50" width="170" height="30" as="geometry" />
        </mxCell>
        <mxCell id="2Kgd87G7EHSv7Dq4OT56-13" value="&lt;font style=&quot;font-size: 10px;&quot;&gt;last_name char(50) NOT NULL&lt;/font&gt;" style="text;html=1;align=center;verticalAlign=middle;whiteSpace=wrap;rounded=0;" vertex="1" parent="2Kgd87G7EHSv7Dq4OT56-7">
          <mxGeometry x="30" y="70" width="170" height="30" as="geometry" />
        </mxCell>
        <mxCell id="2Kgd87G7EHSv7Dq4OT56-14" value="&lt;font style=&quot;font-size: 10px;&quot;&gt;email char(50) NOT NULL&lt;/font&gt;" style="text;html=1;align=center;verticalAlign=middle;whiteSpace=wrap;rounded=0;" vertex="1" parent="2Kgd87G7EHSv7Dq4OT56-7">
          <mxGeometry x="20" y="90" width="170" height="30" as="geometry" />
        </mxCell>
        <mxCell id="2Kgd87G7EHSv7Dq4OT56-15" value="&lt;font style=&quot;font-size: 10px;&quot;&gt;password char(12) NOT NULL&lt;/font&gt;" style="text;html=1;align=center;verticalAlign=middle;whiteSpace=wrap;rounded=0;" vertex="1" parent="2Kgd87G7EHSv7Dq4OT56-7">
          <mxGeometry x="30" y="110" width="170" height="30" as="geometry" />
        </mxCell>
        <mxCell id="2Kgd87G7EHSv7Dq4OT56-17" value="&lt;font style=&quot;font-size: 10px;&quot;&gt;dateofbirth date(00//00/0000) NOT NULL&lt;/font&gt;" style="text;html=1;align=center;verticalAlign=middle;whiteSpace=wrap;rounded=0;" vertex="1" parent="2Kgd87G7EHSv7Dq4OT56-7">
          <mxGeometry x="40" y="140" width="140" height="20" as="geometry" />
        </mxCell>
        <mxCell id="2Kgd87G7EHSv7Dq4OT56-20" value="" style="edgeStyle=entityRelationEdgeStyle;fontSize=12;html=1;endArrow=ERmany;startArrow=ERmany;rounded=0;entryX=0;entryY=0.25;entryDx=0;entryDy=0;" edge="1" parent="1" target="2Kgd87G7EHSv7Dq4OT56-32">
          <mxGeometry width="100" height="100" relative="1" as="geometry">
            <mxPoint x="330" y="170" as="sourcePoint" />
            <mxPoint x="390" y="210" as="targetPoint" />
          </mxGeometry>
        </mxCell>
        <mxCell id="2Kgd87G7EHSv7Dq4OT56-22" value="tblMedicalCondition" style="swimlane;whiteSpace=wrap;html=1;" vertex="1" parent="1">
          <mxGeometry x="480" y="130" width="200" height="210" as="geometry">
            <mxRectangle x="140" y="130" width="80" height="30" as="alternateBounds" />
          </mxGeometry>
        </mxCell>
        <mxCell id="2Kgd87G7EHSv7Dq4OT56-23" value="PK" style="text;html=1;align=center;verticalAlign=middle;whiteSpace=wrap;rounded=0;" vertex="1" parent="2Kgd87G7EHSv7Dq4OT56-22">
          <mxGeometry y="30" width="40" height="20" as="geometry" />
        </mxCell>
        <mxCell id="2Kgd87G7EHSv7Dq4OT56-24" value="" style="endArrow=none;html=1;rounded=0;" edge="1" parent="2Kgd87G7EHSv7Dq4OT56-22">
          <mxGeometry width="50" height="50" relative="1" as="geometry">
            <mxPoint x="40" y="210" as="sourcePoint" />
            <mxPoint x="40" y="30" as="targetPoint" />
          </mxGeometry>
        </mxCell>
        <mxCell id="2Kgd87G7EHSv7Dq4OT56-25" value="medical_id int NOT NULL" style="text;strokeColor=none;fillColor=none;align=left;verticalAlign=middle;spacingLeft=4;spacingRight=4;overflow=hidden;points=[[0,0.5],[1,0.5]];portConstraint=eastwest;rotatable=0;whiteSpace=wrap;html=1;" vertex="1" parent="2Kgd87G7EHSv7Dq4OT56-22">
          <mxGeometry x="40" y="25" width="160" height="30" as="geometry" />
        </mxCell>
        <mxCell id="2Kgd87G7EHSv7Dq4OT56-26" value="" style="endArrow=none;html=1;rounded=0;exitX=0;exitY=1;exitDx=0;exitDy=0;" edge="1" parent="2Kgd87G7EHSv7Dq4OT56-22" source="2Kgd87G7EHSv7Dq4OT56-23">
          <mxGeometry width="50" height="50" relative="1" as="geometry">
            <mxPoint x="70" y="70" as="sourcePoint" />
            <mxPoint x="200" y="50" as="targetPoint" />
          </mxGeometry>
        </mxCell>
        <mxCell id="2Kgd87G7EHSv7Dq4OT56-27" value="&lt;font style=&quot;font-size: 10px;&quot;&gt;user_id int NOT NULL&lt;/font&gt;" style="text;html=1;align=center;verticalAlign=middle;whiteSpace=wrap;rounded=0;" vertex="1" parent="2Kgd87G7EHSv7Dq4OT56-22">
          <mxGeometry x="30" y="50" width="170" height="30" as="geometry" />
        </mxCell>
        <mxCell id="2Kgd87G7EHSv7Dq4OT56-28" value="&lt;font style=&quot;font-size: 10px;&quot;&gt;description char(50) NOT NULL&lt;/font&gt;" style="text;html=1;align=center;verticalAlign=middle;whiteSpace=wrap;rounded=0;" vertex="1" parent="2Kgd87G7EHSv7Dq4OT56-22">
          <mxGeometry x="30" y="70" width="170" height="30" as="geometry" />
        </mxCell>
        <mxCell id="2Kgd87G7EHSv7Dq4OT56-29" value="&lt;font style=&quot;font-size: 10px;&quot;&gt;symptoms char(50) NOT NULL&lt;/font&gt;" style="text;html=1;align=center;verticalAlign=middle;whiteSpace=wrap;rounded=0;" vertex="1" parent="2Kgd87G7EHSv7Dq4OT56-22">
          <mxGeometry x="30" y="90" width="170" height="30" as="geometry" />
        </mxCell>
        <mxCell id="2Kgd87G7EHSv7Dq4OT56-30" value="&lt;font style=&quot;font-size: 10px;&quot;&gt;advice_id char(50) NOT NULL&lt;/font&gt;" style="text;html=1;align=center;verticalAlign=middle;whiteSpace=wrap;rounded=0;" vertex="1" parent="2Kgd87G7EHSv7Dq4OT56-22">
          <mxGeometry x="30" y="110" width="170" height="30" as="geometry" />
        </mxCell>
        <mxCell id="2Kgd87G7EHSv7Dq4OT56-32" value="FK1" style="text;html=1;align=center;verticalAlign=middle;whiteSpace=wrap;rounded=0;" vertex="1" parent="2Kgd87G7EHSv7Dq4OT56-22">
          <mxGeometry y="55" width="40" height="20" as="geometry" />
        </mxCell>
        <mxCell id="2Kgd87G7EHSv7Dq4OT56-33" value="FK2" style="text;html=1;align=center;verticalAlign=middle;whiteSpace=wrap;rounded=0;" vertex="1" parent="2Kgd87G7EHSv7Dq4OT56-22">
          <mxGeometry y="115" width="40" height="20" as="geometry" />
        </mxCell>
        <mxCell id="2Kgd87G7EHSv7Dq4OT56-34" value="tblAdvice" style="swimlane;whiteSpace=wrap;html=1;" vertex="1" parent="1">
          <mxGeometry x="480" y="375" width="200" height="210" as="geometry">
            <mxRectangle x="140" y="130" width="80" height="30" as="alternateBounds" />
          </mxGeometry>
        </mxCell>
        <mxCell id="2Kgd87G7EHSv7Dq4OT56-35" value="PK" style="text;html=1;align=center;verticalAlign=middle;whiteSpace=wrap;rounded=0;" vertex="1" parent="2Kgd87G7EHSv7Dq4OT56-34">
          <mxGeometry y="30" width="40" height="20" as="geometry" />
        </mxCell>
        <mxCell id="2Kgd87G7EHSv7Dq4OT56-36" value="" style="endArrow=none;html=1;rounded=0;" edge="1" parent="2Kgd87G7EHSv7Dq4OT56-34">
          <mxGeometry width="50" height="50" relative="1" as="geometry">
            <mxPoint x="40" y="210" as="sourcePoint" />
            <mxPoint x="40" y="30" as="targetPoint" />
          </mxGeometry>
        </mxCell>
        <mxCell id="2Kgd87G7EHSv7Dq4OT56-37" value="advice_id int NOT NULL" style="text;strokeColor=none;fillColor=none;align=left;verticalAlign=middle;spacingLeft=4;spacingRight=4;overflow=hidden;points=[[0,0.5],[1,0.5]];portConstraint=eastwest;rotatable=0;whiteSpace=wrap;html=1;" vertex="1" parent="2Kgd87G7EHSv7Dq4OT56-34">
          <mxGeometry x="40" y="25" width="160" height="30" as="geometry" />
        </mxCell>
        <mxCell id="2Kgd87G7EHSv7Dq4OT56-38" value="" style="endArrow=none;html=1;rounded=0;exitX=0;exitY=1;exitDx=0;exitDy=0;" edge="1" parent="2Kgd87G7EHSv7Dq4OT56-34" source="2Kgd87G7EHSv7Dq4OT56-35">
          <mxGeometry width="50" height="50" relative="1" as="geometry">
            <mxPoint x="70" y="70" as="sourcePoint" />
            <mxPoint x="200" y="50" as="targetPoint" />
          </mxGeometry>
        </mxCell>
        <mxCell id="2Kgd87G7EHSv7Dq4OT56-39" value="&lt;font style=&quot;font-size: 10px;&quot;&gt;description char(50) NOT NULL&lt;/font&gt;" style="text;html=1;align=center;verticalAlign=middle;whiteSpace=wrap;rounded=0;" vertex="1" parent="2Kgd87G7EHSv7Dq4OT56-34">
          <mxGeometry x="30" y="50" width="170" height="30" as="geometry" />
        </mxCell>
        <mxCell id="2Kgd87G7EHSv7Dq4OT56-40" value="&lt;font style=&quot;font-size: 10px;&quot;&gt;websitelink_char(50) NOT NULL&lt;/font&gt;" style="text;html=1;align=center;verticalAlign=middle;whiteSpace=wrap;rounded=0;" vertex="1" parent="2Kgd87G7EHSv7Dq4OT56-34">
          <mxGeometry x="30" y="70" width="170" height="30" as="geometry" />
        </mxCell>
        <mxCell id="2Kgd87G7EHSv7Dq4OT56-49" value="" style="edgeStyle=orthogonalEdgeStyle;fontSize=12;html=1;endArrow=ERoneToMany;rounded=0;curved=1;entryX=0;entryY=0.5;entryDx=0;entryDy=0;" edge="1" parent="1" target="2Kgd87G7EHSv7Dq4OT56-33">
          <mxGeometry width="100" height="100" relative="1" as="geometry">
            <mxPoint x="460" y="410" as="sourcePoint" />
            <mxPoint x="400" y="250" as="targetPoint" />
            <Array as="points">
              <mxPoint x="480" y="410" />
              <mxPoint x="480" y="411" />
              <mxPoint x="401" y="411" />
              <mxPoint x="401" y="255" />
            </Array>
          </mxGeometry>
        </mxCell>
      </root>
    </mxGraphModel>
  </diagram>
</mxfile>
